<?xml version="1.0" encoding="UTF-8"?>
<!DOCTYPE svg PUBLIC "-//W3C//DTD SVG 1.1//EN" "http://www.w3.org/Graphics/SVG/1.1/DTD/svg11.dtd">
<!-- Creator: CorelDRAW 2021 (64-Bit) -->
<svg xmlns="http://www.w3.org/2000/svg" xml:space="preserve" width="79.375mm" height="79.3748mm" version="1.1" style="shape-rendering:geometricPrecision; text-rendering:geometricPrecision; image-rendering:optimizeQuality; fill-rule:evenodd; clip-rule:evenodd"
viewBox="0 0 7937.5 7937.48"
 xmlns:xlink="http://www.w3.org/1999/xlink"
 xmlns:xodm="http://www.corel.com/coreldraw/odm/2003">
 <defs>
  <style type="text/css">
   <![CDATA[
    .str0 {stroke:#918A00;stroke-width:26.46;stroke-linecap:round;stroke-linejoin:round;stroke-miterlimit:22.9256}
    .str2 {stroke:#C4BA00;stroke-width:26.46;stroke-linecap:round;stroke-linejoin:round;stroke-miterlimit:22.9256}
    .str1 {stroke:#C4BA00;stroke-width:52.92;stroke-linecap:round;stroke-linejoin:round;stroke-miterlimit:22.9256}
    .fil0 {fill:#CCAC00}
    .fil2 {fill:#E6C619}
    .fil5 {fill:#E6C619}
    .fil1 {fill:#FFE140}
    .fil4 {fill:#FFF200}
    .fil3 {fill:white}
    .fil6 {fill:#918A00;fill-rule:nonzero}
   ]]>
  </style>
 </defs>
 <g id="Layer_x0020_1">
  <metadata id="CorelCorpID_0Corel-Layer"/>
  <ellipse class="fil0 str0" transform="matrix(1.06929 0.816665 -0.970322 1.16523 4058.87 4206.62)" rx="2156.35" ry="2063.75"/>
  <ellipse class="fil1 str1" transform="matrix(0.993393 0.76089 -0.901451 1.08565 3938.22 4055.66)" rx="2156.35" ry="2063.75"/>
  <ellipse class="fil2 str2" transform="matrix(0.725408 0.561464 -0.658269 0.801104 3838.41 4029.49)" rx="2156.35" ry="2063.75"/>
  <path class="fil3" d="M5293.81 1535.95c-225.7,170.53 -451.39,341.06 -677.09,511.59 70.22,15.05 140.43,30.09 211.91,61.44 71.47,31.35 144.19,78.99 216.92,126.64 220.68,-152.97 441.36,-305.95 662.04,-458.92 -55.17,-40.12 -110.34,-80.25 -156.73,-110.34 -46.4,-30.09 -84.01,-50.16 -125.39,-70.22 -41.38,-20.06 -86.52,-40.13 -131.66,-60.19z"/>
  <path class="fil3" d="M2156.61 2304.58c-62.7,13.79 -163.01,58.93 -230.72,130.4 -67.71,71.47 -102.81,169.28 -109.08,229.47 -6.27,60.18 16.3,82.75 71.47,76.48 55.17,-6.27 142.94,-41.38 205.64,-90.28 62.69,-48.9 100.3,-111.6 125.38,-168.02 25.08,-56.42 37.62,-106.58 31.35,-140.43 -6.27,-33.86 -31.35,-51.41 -94.04,-37.62z"/>
  <path class="fil3" d="M5790.35 1859.45c-208.14,145.45 -416.29,290.9 -624.43,436.35 35.11,20.06 70.21,40.13 95.29,60.19 25.08,20.06 40.12,40.13 55.17,60.19 208.15,-140.44 416.29,-280.87 624.44,-421.31 -50.16,-45.14 -100.31,-90.28 -150.47,-135.42z"/>
  <path class="fil3" d="M1110.87 5094.46c175.54,-117.86 351.09,-235.73 526.63,-353.59 -7.52,-60.19 -15.05,-120.37 -18.81,-176.8 -3.76,-56.42 -3.76,-109.09 -3.76,-159.25 0,-50.15 0,-97.79 0,-129.14 0,-31.35 0,-46.39 -82.75,2.51 -82.76,48.9 -248.28,161.74 -413.79,274.59 2.51,-228.2 5.02,-456.41 13.8,-614.4 8.78,-157.98 23.82,-245.76 8.78,-226.95 -15.05,18.81 -60.19,144.2 -89.03,233.22 -28.84,89.03 -41.38,141.69 -50.16,221.94 -8.78,80.25 -13.79,188.08 -10.03,298.42 3.76,110.35 16.3,223.19 37.62,328.51 21.31,105.33 51.41,203.14 81.5,300.94z"/>
  <path class="fil3" d="M1663.46 4843.93c14.42,37.49 28.83,74.98 43.25,112.47 -149.96,95.17 -299.93,190.34 -449.89,285.51 20.19,60.56 40.37,121.13 63.45,191.78 23.07,70.66 49.02,151.41 89.4,229.27 40.37,77.87 95.17,152.85 160.06,226.39 64.88,73.54 139.87,145.64 245.13,232.16 105.26,86.52 240.81,187.45 376.35,288.39 95.17,49.03 190.34,98.05 289.84,141.31 99.49,43.26 203.32,80.75 317.24,115.35 113.91,34.61 237.91,66.34 351.83,86.52 113.91,20.19 217.74,28.85 321.56,37.5 -57.68,11.53 -115.36,23.07 -200.43,20.18 -85.08,-2.88 -197.56,-20.19 -286.96,-37.49 -89.4,-17.3 -155.73,-34.61 -233.59,-56.24 -77.87,-21.62 -167.27,-47.58 -256.67,-83.63 -89.4,-36.04 -178.81,-82.19 -268.21,-129.78 -89.4,-47.58 -178.8,-96.6 -249.45,-144.19 -70.66,-47.58 -122.58,-93.73 -190.35,-160.06 -67.77,-66.33 -151.41,-152.84 -214.85,-222.06 -63.45,-69.21 -106.7,-121.13 -147.07,-183.14 -40.38,-62 -77.88,-134.09 -111.04,-204.75 -33.17,-70.65 -62.01,-139.87 -85.08,-210.53 -23.07,-70.65 -40.38,-142.75 -57.68,-214.85 164.39,-106.7 328.77,-213.41 493.16,-320.11z"/>
  <path class="fil4 str0" d="M4110.65 4932.57c155.55,-198.55 447.62,-558.3 609.52,-748.94 161.91,-190.64 193.65,-212.18 225.58,-210.66 31.94,1.52 64.06,26.09 97.94,58.08 33.89,31.99 69.53,71.41 105.18,110.82 104.25,-82 208.5,-164.01 312.74,-246.01 -157.54,-135.03 -315.1,-270.04 -472.65,-405.07 113.74,-124.09 227.48,-248.18 341.21,-372.27 -88.81,-68.73 -177.62,-137.46 -266.43,-206.19 -113.49,137.6 -226.99,275.2 -340.48,412.79 -70.43,-57.41 -140.88,-114.83 -211.32,-172.24 114.47,-135.28 228.92,-270.57 343.39,-405.86 -78.96,-64.7 -157.91,-129.42 -236.87,-194.13 -96.58,119.59 -193.16,239.18 -249.06,303.54 -55.89,64.36 -71.1,73.48 -88.2,68.43 -17.08,-5.04 -36.06,-24.26 -68,-51.64 -31.93,-27.37 -76.82,-62.88 -119.28,-92.62 -42.46,-29.74 -82.49,-53.7 -136.69,-75.78 -54.19,-22.07 -122.57,-42.27 -190.33,-54.55 -67.76,-12.28 -134.91,-16.65 -203.27,-11 -68.37,5.67 -137.96,21.37 -194.28,49.17 -56.33,27.8 -99.39,67.72 -141.79,105.97 -42.39,38.26 -84.1,74.89 -119.63,119.77 -35.52,44.9 -64.83,98.06 -84.9,147.34 -20.07,49.27 -30.89,94.64 -33.62,136.61 -2.73,41.98 2.61,80.53 9.13,118.61 6.51,38.08 14.17,75.67 24.52,106.69 10.34,31.02 23.36,55.47 42.28,84.24 18.92,28.77 43.74,61.85 68.56,94.94 -39.78,-10.46 -79.57,-20.91 -123.18,-24.32 -43.61,-3.4 -91.06,0.26 -142.02,14.92 -50.98,14.66 -105.48,40.34 -146.84,71.36 -41.36,31.03 -69.57,67.4 -97.18,111.68 -27.62,44.29 -54.62,96.48 -72.68,166.67 -18.06,70.19 -27.18,158.4 -16.65,238.32 10.53,79.93 40.71,151.57 76.36,216.83 35.65,65.27 76.77,124.16 117.83,166.73 41.06,42.58 82.05,68.85 123.06,95.12 -120.43,140.52 -240.86,281.04 -361.28,421.55 87.11,77.6 174.22,155.22 261.33,232.82 102.91,-130.41 205.81,-260.84 308.72,-391.25 58.28,54.37 116.56,108.74 174.83,163.12 -104.85,125.8 -209.71,251.59 -314.56,377.38 79.56,72.63 159.13,145.25 238.7,217.87 103.88,-128.11 207.76,-256.22 311.64,-384.33 162.78,140.98 325.56,281.97 488.34,422.95 75.66,-91.73 151.33,-183.47 226.99,-275.19 -73.73,-58.76 -147.46,-117.5 -192.5,-157.34 -45.05,-39.83 -61.43,-60.74 -60.1,-89.89 1.34,-29.13 20.39,-66.48 175.94,-265.04z"/>
  <path class="fil5 str0" d="M3499.05 4803.98c130.21,-149.67 260.42,-299.34 390.63,-449.02 -82.47,-72.62 -164.95,-145.24 -234.22,-199.27 -69.28,-54.03 -125.35,-89.46 -186.27,-113.02 -60.91,-23.55 -126.66,-35.23 -184.69,-34.94 -58.04,0.29 -108.35,12.53 -142.06,36.57 -33.72,24.03 -50.84,59.88 -64.75,103.31 -13.91,43.44 -24.64,94.47 -22.78,145.58 1.84,51.12 16.24,102.31 44.64,148.49 28.4,46.2 70.8,87.39 117.08,131.42 46.27,44.04 96.43,90.91 144.15,129.86 47.72,38.95 92.99,69.99 138.27,101.02z"/>
  <path class="fil5 str0" d="M4090.99 4055.47c-104.07,-81.42 -208.14,-162.85 -283.7,-233.92 -75.55,-71.06 -122.59,-131.76 -156.07,-196.4 -33.48,-64.63 -53.41,-133.18 -53.25,-192.29 0.16,-59.12 20.39,-108.78 54.42,-149.06 34.04,-40.28 81.86,-71.16 133.26,-82.97 51.39,-11.8 106.35,-4.52 172.14,17.87 65.8,22.39 142.43,59.91 205.5,101.34 63.07,41.42 112.6,86.78 163.82,134.08 51.24,47.31 104.21,96.58 157.16,145.85 -131.09,151.83 -262.18,303.66 -393.28,455.5z"/>
  <path class="fil6" d="M3373.17 1738.96l43.05 10.87c-8.99,35.28 -25.15,62.09 -48.49,80.59 -23.34,18.51 -51.89,27.8 -85.65,27.8 -34.9,0 -63.3,-7.1 -85.2,-21.38 -21.9,-14.2 -38.52,-34.82 -49.93,-61.78 -11.4,-27.04 -17.14,-55.97 -17.14,-86.94 0,-33.76 6.42,-63.21 19.33,-88.37 12.92,-25.15 31.27,-44.26 55.07,-57.32 23.79,-13.07 50,-19.57 78.55,-19.57 32.48,0 59.74,8.24 81.8,24.78 22.13,16.54 37.53,39.73 46.22,69.64l-42.15 9.97c-7.47,-23.57 -18.42,-40.79 -32.7,-51.51 -14.27,-10.8 -32.25,-16.17 -53.93,-16.17 -24.85,0 -45.69,5.97 -62.39,17.9 -16.69,11.94 -28.47,28.02 -35.19,48.12 -6.8,20.16 -10.2,40.93 -10.2,62.31 0,27.57 4,51.66 12.01,72.2 8.01,20.62 20.47,35.96 37.39,46.15 16.92,10.2 35.19,15.26 54.91,15.26 24.02,0 44.26,-6.95 60.87,-20.77 16.62,-13.9 27.88,-34.44 33.77,-61.78z"/>
  <path id="_1" class="fil6" d="M3617.96 1823.32c-14.81,12.62 -29.08,21.45 -42.75,26.67 -13.67,5.21 -28.33,7.77 -44.04,7.77 -25.83,0 -45.69,-6.26 -59.59,-18.88 -13.9,-12.54 -20.85,-28.62 -20.85,-48.19 0,-11.48 2.65,-21.97 7.86,-31.49 5.29,-9.52 12.16,-17.07 20.62,-22.81 8.53,-5.74 18.05,-10.12 28.7,-13.07 7.86,-2.04 19.71,-4 35.5,-5.97 32.18,-3.77 55.97,-8.38 71.15,-13.67 0.15,-5.43 0.23,-8.91 0.23,-10.34 0,-16.17 -3.78,-27.57 -11.33,-34.22 -10.2,-8.99 -25.38,-13.44 -45.47,-13.44 -18.81,0 -32.71,3.32 -41.62,9.89 -8.99,6.57 -15.56,18.2 -19.86,34.97l-38.98 -5.44c3.55,-16.69 9.37,-30.21 17.53,-40.48 8.15,-10.27 19.94,-18.13 35.34,-23.72 15.34,-5.51 33.24,-8.31 53.48,-8.31 20.09,0 36.48,2.35 49.09,7.1 12.54,4.76 21.83,10.65 27.72,17.83 5.89,7.17 10.05,16.24 12.46,27.19 1.29,6.8 1.97,19.03 1.97,36.63l0 52.87c0,36.94 0.83,60.28 2.49,70.17 1.59,9.9 4.91,19.34 9.74,28.4l-41.69 0c-4,-8.38 -6.57,-18.2 -7.7,-29.46zm-3.17 -88.37c-14.51,5.89 -36.26,10.88 -65.26,14.96 -16.47,2.34 -28.1,4.98 -34.9,7.93 -6.79,2.94 -12.01,7.25 -15.71,12.84 -3.7,5.66 -5.59,11.93 -5.59,18.88 0,10.5 4.01,19.34 12.09,26.36 8.08,7.03 19.86,10.58 35.35,10.58 15.33,0 29,-3.33 41.01,-10.05 11.93,-6.65 20.77,-15.79 26.36,-27.34 4.3,-8.99 6.42,-22.21 6.42,-39.66l0.23 -14.5z"/>
  <path id="_2" class="fil6" d="M3715.92 1852.78l0 -235.2 35.8 0 0 36.03c9.14,-16.69 17.6,-27.72 25.38,-33.01 7.78,-5.36 16.31,-8.01 25.6,-8.01 13.45,0 27.12,4.23 41.01,12.62l-14.2 36.78c-9.66,-5.44 -19.33,-8.16 -29,-8.16 -8.69,0 -16.47,2.65 -23.34,7.86 -6.87,5.21 -11.78,12.46 -14.73,21.75 -4.45,14.13 -6.64,29.61 -6.64,46.45l0 122.89 -39.88 0z"/>
  <path id="_3" class="fil6" d="M4020.91 1823.32c-14.81,12.62 -29.08,21.45 -42.75,26.67 -13.67,5.21 -28.33,7.77 -44.04,7.77 -25.83,0 -45.69,-6.26 -59.59,-18.88 -13.9,-12.54 -20.85,-28.62 -20.85,-48.19 0,-11.48 2.65,-21.97 7.86,-31.49 5.29,-9.52 12.16,-17.07 20.62,-22.81 8.53,-5.74 18.05,-10.12 28.7,-13.07 7.86,-2.04 19.71,-4 35.5,-5.97 32.18,-3.77 55.97,-8.38 71.15,-13.67 0.15,-5.43 0.23,-8.91 0.23,-10.34 0,-16.17 -3.78,-27.57 -11.33,-34.22 -10.2,-8.99 -25.38,-13.44 -45.47,-13.44 -18.81,0 -32.71,3.32 -41.62,9.89 -8.99,6.57 -15.56,18.2 -19.86,34.97l-38.98 -5.44c3.55,-16.69 9.37,-30.21 17.53,-40.48 8.15,-10.27 19.94,-18.13 35.34,-23.72 15.34,-5.51 33.24,-8.31 53.48,-8.31 20.09,0 36.48,2.35 49.09,7.1 12.54,4.76 21.83,10.65 27.72,17.83 5.89,7.17 10.05,16.24 12.46,27.19 1.29,6.8 1.97,19.03 1.97,36.63l0 52.87c0,36.94 0.83,60.28 2.49,70.17 1.59,9.9 4.91,19.34 9.74,28.4l-41.69 0c-4,-8.38 -6.57,-18.2 -7.7,-29.46zm-3.17 -88.37c-14.51,5.89 -36.26,10.88 -65.26,14.96 -16.47,2.34 -28.1,4.98 -34.9,7.93 -6.79,2.94 -12.01,7.25 -15.71,12.84 -3.7,5.66 -5.59,11.93 -5.59,18.88 0,10.5 4.01,19.34 12.09,26.36 8.08,7.03 19.86,10.58 35.35,10.58 15.33,0 29,-3.33 41.01,-10.05 11.93,-6.65 20.77,-15.79 26.36,-27.34 4.3,-8.99 6.42,-22.21 6.42,-39.66l0.23 -14.5z"/>
  <path id="_4" class="fil6" d="M4454.6 1661.99l-213.9 0 0 -37.16 213.9 0 0 37.16zm0 98.34l-213.9 0 0 -37.16 213.9 0 0 37.16z"/>
  <path id="_5" class="fil6" d="M4774.47 1852.78l-39.88 0 0 -253.93c-9.59,9.21 -22.2,18.35 -37.76,27.49 -15.56,9.14 -29.61,16.01 -42,20.55l0 -38.53c22.28,-10.42 41.77,-23.11 58.46,-38.06 16.7,-14.88 28.55,-29.31 35.5,-43.36l25.68 0 0 325.84z"/>
 </g>
</svg>
