<?xml version="1.0" encoding="UTF-8"?>
<!DOCTYPE svg PUBLIC "-//W3C//DTD SVG 1.1//EN" "http://www.w3.org/Graphics/SVG/1.1/DTD/svg11.dtd">
<!-- Creator: CorelDRAW 2021 (64-Bit) -->
<svg xmlns="http://www.w3.org/2000/svg" xml:space="preserve" width="79.375mm" height="79.3748mm" version="1.1" style="shape-rendering:geometricPrecision; text-rendering:geometricPrecision; image-rendering:optimizeQuality; fill-rule:evenodd; clip-rule:evenodd"
viewBox="0 0 7937.5 7937.48"
 xmlns:xlink="http://www.w3.org/1999/xlink"
 xmlns:xodm="http://www.corel.com/coreldraw/odm/2003">
 <defs>
  <style type="text/css">
   <![CDATA[
    .str0 {stroke:#918A00;stroke-width:26.46;stroke-linecap:round;stroke-linejoin:round;stroke-miterlimit:22.9256}
    .str2 {stroke:#C4BA00;stroke-width:26.46;stroke-linecap:round;stroke-linejoin:round;stroke-miterlimit:22.9256}
    .str1 {stroke:#C4BA00;stroke-width:52.92;stroke-linecap:round;stroke-linejoin:round;stroke-miterlimit:22.9256}
    .fil0 {fill:#CCAC00}
    .fil2 {fill:#E6C619}
    .fil1 {fill:#FFE140}
    .fil4 {fill:white}
    .fil5 {fill:#918A00;fill-rule:nonzero}
    .fil3 {fill:#FFED00;fill-rule:nonzero}
   ]]>
  </style>
 </defs>
 <g id="Layer_x0020_1">
  <metadata id="CorelCorpID_0Corel-Layer"/>
  <ellipse class="fil0 str0" transform="matrix(1.06929 0.816665 -0.970322 1.16523 4039.81 4040.1)" rx="2156.35" ry="2063.75"/>
  <ellipse class="fil1 str1" transform="matrix(0.993393 0.76089 -0.901451 1.08565 3919.16 3889.14)" rx="2156.35" ry="2063.75"/>
  <ellipse class="fil2 str2" transform="matrix(0.725408 0.561464 -0.658269 0.801104 3819.35 3862.97)" rx="2156.35" ry="2063.75"/>
  <path class="fil3" d="M3566.11 5166.53c-91.26,115.43 -247.11,112.2 -467.94,-9.22 -24.13,-13.27 -57.37,-32.27 -99.72,-57.02 -42.35,-24.75 -72.66,-42.14 -90.95,-52.2l-154.27 199.71 -258.85 -142.32 154.27 -199.71c-16.81,-9.24 -47.19,-25.22 -91.13,-47.91 -43.92,-22.69 -77.23,-40.27 -99.89,-52.73 -220.84,-121.42 -287.28,-240.4 -198.95,-357.45l444.62 -575.57 298.35 164.04 -441.46 571.47 223.74 123.02 747.24 -967.3 -142.72 -600.12c-21.24,-91.19 -7.93,-167.77 40.33,-230.24l352.85 -456.77c92.9,-118.91 249.93,-117.2 471.5,4.62 22.66,12.46 54.78,31.58 96.72,56.83 41.96,25.26 71.55,42.25 88.36,51.5l154.27 -199.71 258.86 142.32 -154.28 199.71c18.29,10.06 49.39,26.42 93.72,48.61 44.33,22.19 78.76,39.65 102.89,52.92 221.56,121.82 286.82,242.33 195.39,362.04l-404.28 523.34 -298.33 -164.03 403.48 -522.31 -228.15 -125.44 -700.16 906.36 148.71 600.49c22.01,90.17 9.49,165.73 -38.37,227.69l-405.85 525.38zm200.02 -1707.36l536.8 -694.88 -223.75 -123.02 -382.52 495.18 69.47 322.72zm-495.2 1539.23l434.34 -562.25 -78.62 -319 -583.86 755.81 228.14 125.44z"/>
  <path class="fil4" d="M5274.75 1369.43c-225.7,170.53 -451.39,341.06 -677.09,511.59 70.22,15.05 140.43,30.09 211.91,61.44 71.47,31.35 144.19,78.99 216.92,126.64 220.68,-152.97 441.36,-305.95 662.04,-458.92 -55.17,-40.12 -110.34,-80.25 -156.73,-110.34 -46.4,-30.09 -84.01,-50.16 -125.39,-70.22 -41.38,-20.06 -86.52,-40.13 -131.66,-60.19z"/>
  <path class="fil4" d="M2137.55 2138.06c-62.7,13.79 -163.01,58.93 -230.72,130.4 -67.71,71.47 -102.81,169.28 -109.08,229.47 -6.27,60.18 16.3,82.75 71.47,76.48 55.17,-6.27 142.94,-41.38 205.64,-90.28 62.69,-48.9 100.3,-111.6 125.38,-168.02 25.08,-56.42 37.62,-106.58 31.35,-140.43 -6.27,-33.86 -31.35,-51.41 -94.04,-37.62z"/>
  <path class="fil4" d="M5771.29 1692.93c-208.14,145.45 -416.29,290.9 -624.43,436.35 35.11,20.06 70.21,40.13 95.29,60.19 25.08,20.06 40.12,40.13 55.17,60.19 208.15,-140.44 416.29,-280.87 624.44,-421.31 -50.16,-45.14 -100.31,-90.28 -150.47,-135.42z"/>
  <path class="fil4" d="M1091.81 4927.94c175.54,-117.86 351.09,-235.73 526.63,-353.59 -7.52,-60.19 -15.05,-120.37 -18.81,-176.8 -3.76,-56.42 -3.76,-109.09 -3.76,-159.25 0,-50.15 0,-97.79 0,-129.14 0,-31.35 0,-46.39 -82.75,2.51 -82.76,48.9 -248.28,161.74 -413.79,274.59 2.51,-228.2 5.02,-456.41 13.8,-614.4 8.78,-157.98 23.82,-245.76 8.78,-226.95 -15.05,18.81 -60.19,144.2 -89.03,233.22 -28.84,89.03 -41.38,141.69 -50.16,221.94 -8.78,80.25 -13.79,188.08 -10.03,298.42 3.76,110.35 16.3,223.19 37.62,328.51 21.31,105.33 51.41,203.14 81.5,300.94z"/>
  <path class="fil4" d="M1644.4 4677.41c14.42,37.49 28.83,74.98 43.25,112.47 -149.96,95.17 -299.93,190.34 -449.89,285.51 20.19,60.56 40.37,121.13 63.45,191.78 23.07,70.66 49.02,151.41 89.4,229.27 40.37,77.87 95.17,152.85 160.06,226.39 64.88,73.54 139.87,145.64 245.13,232.16 105.26,86.52 240.81,187.45 376.35,288.39 95.17,49.03 190.34,98.05 289.84,141.31 99.49,43.26 203.32,80.75 317.24,115.35 113.91,34.61 237.91,66.34 351.83,86.52 113.91,20.19 217.74,28.85 321.56,37.5 -57.68,11.53 -115.36,23.07 -200.43,20.18 -85.08,-2.88 -197.56,-20.19 -286.96,-37.49 -89.4,-17.3 -155.73,-34.61 -233.59,-56.24 -77.87,-21.62 -167.27,-47.58 -256.67,-83.63 -89.4,-36.04 -178.81,-82.19 -268.21,-129.78 -89.4,-47.58 -178.8,-96.6 -249.45,-144.19 -70.66,-47.58 -122.58,-93.73 -190.35,-160.06 -67.77,-66.33 -151.41,-152.84 -214.85,-222.06 -63.45,-69.21 -106.7,-121.13 -147.07,-183.14 -40.38,-62 -77.88,-134.09 -111.04,-204.75 -33.17,-70.65 -62.01,-139.87 -85.08,-210.53 -23.07,-70.65 -40.38,-142.75 -57.68,-214.85 164.39,-106.7 328.77,-213.41 493.16,-320.11z"/>
  <path class="fil5" d="M3304.65 1628.56l35.41 6.35c-9.37,33.06 -24.29,58.97 -44.76,77.88 -20.48,18.9 -44.81,29.81 -73.03,32.64 -29.16,2.92 -52.52,-1.2 -70.07,-12.44 -17.56,-11.17 -30.36,-28.65 -38.48,-52.39 -8.11,-23.81 -11.39,-49.83 -9.76,-78.18 1.77,-30.93 8.68,-58.43 20.79,-82.56 12.12,-24.11 28.45,-43.15 49.03,-57.11 20.56,-13.97 42.8,-22.11 66.66,-24.51 27.14,-2.72 49.5,2.53 67.06,15.83 17.62,13.29 29.28,33.23 34.97,59.9l-35.75 12.67c-5.01,-20.96 -13.26,-35.81 -24.62,-44.44 -11.36,-8.69 -26.1,-12.1 -44.22,-10.28 -20.76,2.08 -38.49,9.3 -53.07,21.63 -14.57,12.32 -25.26,28.05 -31.94,47.02 -6.74,19.03 -10.67,38.34 -11.79,57.91 -1.45,25.25 0.63,46.98 6.24,65.13 5.61,18.21 15.22,31.21 28.82,39.13 13.61,7.92 28.62,11.02 45.09,9.36 20.07,-2.01 37.35,-10.08 51.96,-24.13 14.61,-14.11 25.1,-33.87 31.46,-59.41z"/>
  <path id="_1" class="fil5" d="M3368.53 1618.71c2.28,-39.77 14.07,-70.26 35.43,-91.45 17.76,-17.6 38.86,-27.62 63.16,-30.06 26.95,-2.71 48.49,4.75 64.54,22.4 16,17.58 23.05,43.49 21.09,77.59 -1.58,27.68 -6.62,49.77 -15.09,66.37 -8.49,16.6 -20.24,30.02 -35.26,40.27 -14.95,10.23 -31.05,16.18 -48.15,17.9 -27.52,2.76 -49.18,-4.62 -65.06,-22.23 -15.87,-17.59 -22.74,-44.55 -20.66,-80.79zm34.08 -3.36c-1.58,27.54 2.73,47.6 12.93,60.13 10.26,12.58 23.7,18.04 40.42,16.36 16.54,-1.66 30.69,-9.89 42.52,-24.76 11.77,-14.87 18.47,-36.38 20.08,-64.53 1.52,-26.56 -2.88,-46.13 -13.14,-58.66 -10.26,-12.58 -23.63,-18.05 -40.04,-16.4 -16.72,1.68 -30.94,9.85 -42.77,24.59 -11.76,14.72 -18.43,35.81 -20,63.27z"/>
  <path id="_2" class="fil5" d="M3585.1 1704.05l12.35 -215.4 29.91 -3 -1.89 32.99c8.52,-16.05 16.16,-26.86 22.94,-32.35 6.78,-5.57 14.05,-8.7 21.81,-9.48 11.24,-1.13 22.44,1.6 33.62,8.11l-13.8 34.88c-7.79,-4.18 -15.73,-5.85 -23.81,-5.04 -7.26,0.73 -13.9,3.8 -19.92,9.15 -6.01,5.35 -10.49,12.4 -13.44,21.15 -4.47,13.32 -7.11,27.68 -7.99,43.11l-6.45 112.54 -33.33 3.34z"/>
  <path id="_3" class="fil5" d="M3705.26 1584.91c2.28,-39.77 14.07,-70.25 35.43,-91.45 17.76,-17.6 38.86,-27.62 63.16,-30.06 26.95,-2.71 48.49,4.76 64.54,22.4 16,17.58 23.05,43.49 21.09,77.6 -1.58,27.67 -6.62,49.77 -15.09,66.36 -8.49,16.6 -20.24,30.03 -35.26,40.27 -14.96,10.24 -31.05,16.18 -48.15,17.9 -27.52,2.76 -49.19,-4.62 -65.06,-22.22 -15.87,-17.6 -22.74,-44.55 -20.66,-80.8zm34.08 -3.35c-1.58,27.53 2.73,47.59 12.93,60.12 10.26,12.58 23.7,18.05 40.42,16.37 16.54,-1.66 30.69,-9.89 42.52,-24.76 11.77,-14.88 18.47,-36.38 20.08,-64.54 1.52,-26.56 -2.88,-46.13 -13.15,-58.65 -10.25,-12.59 -23.62,-18.06 -40.03,-16.41 -16.72,1.68 -30.94,9.85 -42.77,24.59 -11.76,14.72 -18.43,35.81 -20,63.28z"/>
  <path id="_4" class="fil5" d="M4052.13 1630.35c-13.04,12.8 -25.43,22.09 -37.12,28.01 -11.7,5.92 -24.08,9.5 -37.21,10.82 -21.58,2.16 -37.85,-1.91 -48.81,-12.3 -10.95,-10.32 -15.91,-24.47 -14.88,-42.38 0.6,-10.51 3.36,-20.35 8.21,-29.51 4.92,-9.15 11.06,-16.65 18.43,-22.61 7.43,-5.97 15.62,-10.78 24.67,-14.37 6.67,-2.54 16.68,-5.33 29.97,-8.45 27.09,-6.16 47.22,-12.38 60.18,-18.48 0.42,-5 0.65,-8.19 0.73,-9.5 0.85,-14.81 -1.7,-24.93 -7.67,-30.39 -8.05,-7.38 -20.5,-10.18 -37.29,-8.5 -15.72,1.58 -27.5,5.79 -35.29,12.56 -7.86,6.77 -13.96,17.97 -18.44,33.69l-32.29 -1.71c3.85,-15.59 9.42,-28.45 16.77,-38.55 7.36,-10.09 17.62,-18.27 30.79,-24.69 13.1,-6.33 28.21,-10.39 45.12,-12.08 16.79,-1.69 30.36,-0.93 40.66,2.38 10.23,3.3 17.68,7.92 22.22,13.99 4.55,6.09 7.54,14.03 8.99,23.86 0.72,6.12 0.64,17.27 -0.28,33.39l-2.78 48.41c-1.94,33.84 -2.47,55.14 -1.6,64.06 0.8,8.92 3.09,17.29 6.65,25.19l-34.83 3.5c-2.91,-7.34 -4.54,-16.12 -4.9,-26.34zm1.98 -80.66c-12.42,6.62 -30.86,13 -55.31,19.17 -13.88,3.53 -23.74,6.92 -29.57,10.19 -5.84,3.27 -10.42,7.65 -13.81,13.08 -3.38,5.5 -5.3,11.39 -5.66,17.76 -0.55,9.61 2.33,17.37 8.72,23.13 6.38,5.75 16.04,8.01 28.98,6.72 12.81,-1.29 24.41,-5.48 34.8,-12.64 10.32,-7.09 18.18,-16.2 23.47,-27.26 4.06,-8.59 6.52,-20.87 7.44,-36.85l0.94 -13.3z"/>
  <path id="_5" class="fil5" d="M4423.02 1446.23l-178.75 17.94 1.95 -34.03 178.75 -17.94 -1.95 34.03zm-5.16 90.06l-178.76 17.94 1.95 -34.03 178.76 -17.94 -1.95 34.03z"/>
  <path id="_6" class="fil5" d="M4731.9 1554.29l-1.99 34.86 -179.51 18.02c0.25,-8.76 2.06,-17.33 5.38,-25.78 5.37,-13.81 13.51,-27.77 24.41,-41.72 10.9,-13.95 26.28,-30.36 46.12,-49.2 30.86,-29.44 52.02,-52.39 63.32,-68.93 11.36,-16.55 17.44,-31.74 18.24,-45.58 0.83,-14.46 -3.21,-26.15 -12.11,-35.16 -8.9,-8.95 -20.98,-12.68 -36.2,-11.16 -16.09,1.62 -29.27,8.17 -39.53,19.65 -10.26,11.42 -15.95,26.43 -17.14,45.05l-33.87 -0.32c3.94,-28.18 14,-50.37 30.11,-66.57 16.18,-16.2 37.11,-25.59 62.93,-28.18 26,-2.61 46.19,3.2 60.43,17.53 14.3,14.31 20.75,33.19 19.41,56.57 -0.68,11.9 -3.56,23.81 -8.7,35.74 -5.08,12 -13.16,24.84 -24.18,38.6 -11.07,13.7 -29.18,32.92 -54.31,57.45 -21.06,20.4 -34.65,34.15 -40.71,41.29 -6.06,7.14 -11.1,14.18 -15.2,21.2l133.1 -13.36z"/>
 </g>
</svg>
